# xmcd
#
# Track frame offsets: 
#        150
#        20960
#        40874
#        57996
#        73553
#        90050
#
# Disc length: 1509 seconds
#
# Revision: 1
# Processed by: cddbd v1.5.2PL0 Copyright (c) Steve Scherf et al.
# Submitted via: ExactAudioCopyFreeDBPlugin 1.0
#
DISCID=4605e306
DTITLE=Audrey et Les Faces B - La maturité... c'est pas pour tout d'su
DTITLE=ite !
DYEAR=2015
DGENRE=Swing
TTITLE0=Lundi, c'est mardi
TTITLE1=Hi-Heel Sneakers
TTITLE2=Ça m'rend folle
TTITLE3=(You Make Me Feel Like) A Natural Woman
TTITLE4=Kidman Blues
TTITLE5=Rockin' Chair
EXTD=
EXTT0=
EXTT1=
EXTT2=
EXTT3=
EXTT4=
EXTT5=
PLAYORDER=
